{
  "accessors": [
    {
      "bufferView": 2,
      "componentType": 5126,
      "count": 145,
      "max": [
        1.0574560165405273,
        0.4552980065345764,
        2.389781951904297
      ],
      "min": [
        -1.0872269868850708,
        -0.603568971157074,
        1.3033180236816406
      ],
      "type": "VEC3"
    },
    {
      "bufferView": 2,
      "byteOffset": 1740,
      "componentType": 5126,
      "count": 145,
      "max": [
        0.9491144418716431,
        0.9775383472442627,
        0.999522864818573
      ],
      "min": [
        -0.9491145014762878,
        -0.9982243776321411,
        -0.9990567564964294
      ],
      "type": "VEC3"
    },
    {
      "bufferView": 1,
      "componentType": 5126,
      "count": 145,
      "max": [
        0.49876001477241516,
        0.9948499798774719
      ],
      "min": [
        0.005609999876469374,
        0.253030002117157
      ],
      "type": "VEC2"
    },
    {
      "bufferView": 0,
      "componentType": 5125,
      "count": 420,
      "type": "SCALAR"
    },
    {
      "bufferView": 2,
      "byteOffset": 3480,
      "componentType": 5126,
      "count": 4229,
      "max": [
        1.1504210233688354,
        0.43748000264167786,
        2.8033409118652344
      ],
      "min": [
        -1.1842069625854492,
        -0.7688689827919006,
        -0.025333000347018242
      ],
      "type": "VEC3"
    },
    {
      "bufferView": 2,
      "byteOffset": 54228,
      "componentType": 5126,
      "count": 4229,
      "max": [
        0.9999504685401917,
        0.9996071457862854,
        0.9995915293693542
      ],
      "min": [
        -0.9999592304229736,
        -0.9999178647994995,
        -0.9998223781585693
      ],
      "type": "VEC3"
    },
    {
      "bufferView": 1,
      "byteOffset": 1160,
      "componentType": 5126,
      "count": 4229,
      "max": [
        0.9938499927520752,
        0.9958400130271912
      ],
      "min": [
        0.003109999932348728,
        0.002589999930933118
      ],
      "type": "VEC2"
    },
    {
      "bufferView": 0,
      "byteOffset": 1680,
      "componentType": 5125,
      "count": 22488,
      "type": "SCALAR"
    },
    {
      "bufferView": 2,
      "byteOffset": 104976,
      "componentType": 5126,
      "count": 1714,
      "max": [
        1.451259970664978,
        0.41393500566482544,
        2.437943935394287
      ],
      "min": [
        -1.6952170133590698,
        -0.763625979423523,
        0.4783099889755249
      ],
      "type": "VEC3"
    },
    {
      "bufferView": 2,
      "byteOffset": 125544,
      "componentType": 5126,
      "count": 1714,
      "max": [
        0.9985613822937012,
        0.9998396635055542,
        0.9994320273399353
      ],
      "min": [
        -0.9985615015029907,
        -0.9999872446060181,
        -0.9935181140899658
      ],
      "type": "VEC3"
    },
    {
      "bufferView": 1,
      "byteOffset": 34992,
      "componentType": 5126,
      "count": 1714,
      "max": [
        0.4981600046157837,
        0.9909499883651733
      ],
      "min": [
        0.0032999999821186066,
        0.005739999935030937
      ],
      "type": "VEC2"
    },
    {
      "bufferView": 0,
      "byteOffset": 91632,
      "componentType": 5125,
      "count": 8388,
      "type": "SCALAR"
    }
  ],
  "asset": {
    "extras": {
      "author": "ribtibs (https://sketchfab.com/ribtibs)",
      "license": "CC-BY-4.0 (http://creativecommons.org/licenses/by/4.0/)",
      "source": "https://sketchfab.com/3d-models/fire-branded-ogre-39cbab6fbaf14ccc87444e06695a1a35",
      "title": "Fire-Branded Ogre"
    },
    "generator": "Sketchfab-12.64.0",
    "version": "2.0"
  },
  "bufferViews": [
    {
      "buffer": 0,
      "byteLength": 125184,
      "name": "floatBufferViews",
      "target": 34963
    },
    {
      "buffer": 0,
      "byteLength": 48704,
      "byteOffset": 125184,
      "byteStride": 8,
      "name": "floatBufferViews",
      "target": 34962
    },
    {
      "buffer": 0,
      "byteLength": 146112,
      "byteOffset": 173888,
      "byteStride": 12,
      "name": "floatBufferViews",
      "target": 34962
    }
  ],
  "buffers": [
    {
      "byteLength": 320000,
      "uri": "scene.bin"
    }
  ],
  "extensionsUsed": [
    "KHR_materials_unlit"
  ],
  "images": [
    {
      "uri": "textures/lambert4SG_baseColor.jpeg"
    }
  ],
  "materials": [
    {
      "doubleSided": true,
      "extensions": {
        "KHR_materials_unlit": {}
      },
      "name": "lambert4SG",
      "pbrMetallicRoughness": {
        "baseColorTexture": {
          "index": 0
        },
        "metallicFactor": 0.0
      }
    }
  ],
  "meshes": [
    {
      "name": "Object_0",
      "primitives": [
        {
          "attributes": {
            "NORMAL": 1,
            "POSITION": 0,
            "TEXCOORD_0": 2
          },
          "indices": 3,
          "material": 0,
          "mode": 4
        }
      ]
    },
    {
      "name": "Object_1",
      "primitives": [
        {
          "attributes": {
            "NORMAL": 5,
            "POSITION": 4,
            "TEXCOORD_0": 6
          },
          "indices": 7,
          "material": 0,
          "mode": 4
        }
      ]
    },
    {
      "name": "Object_2",
      "primitives": [
        {
          "attributes": {
            "NORMAL": 9,
            "POSITION": 8,
            "TEXCOORD_0": 10
          },
          "indices": 11,
          "material": 0,
          "mode": 4
        }
      ]
    }
  ],
  "nodes": [
    {
      "children": [
        1
      ],
      "matrix": [
        1.0,
        0.0,
        0.0,
        0.0,
        0.0,
        2.220446049250313e-16,
        -1.0,
        0.0,
        0.0,
        1.0,
        2.220446049250313e-16,
        0.0,
        0.0,
        0.0,
        0.0,
        1.0
      ],
      "name": "Sketchfab_model"
    },
    {
      "children": [
        2,
        3,
        4
      ],
      "name": "ogre Posed.obj.cleaner"
    },
    {
      "mesh": 0,
      "name": "Object_2"
    },
    {
      "mesh": 1,
      "name": "Object_3"
    },
    {
      "mesh": 2,
      "name": "Object_4"
    }
  ],
  "samplers": [
    {
      "magFilter": 9729,
      "minFilter": 9987,
      "wrapS": 10497,
      "wrapT": 10497
    }
  ],
  "scene": 0,
  "scenes": [
    {
      "name": "Sketchfab_Scene",
      "nodes": [
        0
      ]
    }
  ],
  "textures": [
    {
      "sampler": 0,
      "source": 0
    }
  ]
}
